#!OML:ASF F:\VICON\USERDATA\INSTALL\rory3\rory3.ASF
:FULLY-SPECIFIED
:DEGREES
3144
root 10.7977 17.4921 -5.60191 2.52792 -51.3582 16.3409
lowerback 14.4029 2.25888 0.483145
upperback 7.1401 2.89209 8.05693
thorax -0.898132 1.2006 7.8529
lowerneck -7.4844 -12.7519 -12.4027
upperneck 28.4978 -19.0113 8.49063
head 12.7657 -8.89278 2.49823
rclavicle 3.18055e-014 -4.45278e-014
rhumerus -4.47264 15.7266 -94.2054
rradius 30.968
rwrist -43.3647
rhand -35.3403 -29.4734
rfingers 7.12502
rthumb -8.47318 -59.2834
lclavicle 3.18055e-014 -4.45278e-014
lhumerus -24.4834 -52.8622 97.4714
lradius 44.1596
lwrist 19.8431
lhand -12.6046 52.271
lfingers 7.12502
lthumb 13.4743 -1358.18
rfemur -40.1323 -6.11913 -3.62399
rtibia 35.437
rfoot -16.7546 -15.6841
rtoes 13.9206
lfemur -22.5525 4.7307 -30.5261
ltibia 27.8104
lfoot -15.7938 1.6042
ltoes -17.6465
3145
root 10.8274 17.4899 -5.58792 2.46847 -51.2187 16.4329
lowerback 14.5611 2.30991 0.297371
upperback 7.12814 2.9462 8.1714
thorax -1.01637 1.22379 8.07632
lowerneck -7.45179 -12.721 -12.5377
upperneck 28.45 -18.8936 8.36339
head 12.7245 -8.87003 2.49467
rclavicle -3.02153e-014 -7.31528e-014
rhumerus -4.49224 15.0658 -94.8943
rradius 30.0237
rwrist -42.7156
rhand -35.6209 -29.3266
rfingers 7.12502
rthumb -8.74397 -59.1254
lclavicle -3.02153e-014 -7.31528e-014
lhumerus -25.4601 -52.4722 97.6327
lradius 44.1161
lwrist 20.2794
lhand -12.795 52.4039
lfingers 7.12502
lthumb 13.2908 -1358.04
rfemur -40.2892 -6.23107 -3.69207
rtibia 35.7988
rfoot -17.3303 -15.8031
rtoes 13.8389
lfemur -22.6714 4.72636 -30.7267
ltibia 27.9351
lfoot -15.8425 1.45485
ltoes -17.611
3146
root 10.8535 17.4892 -5.57482 2.48202 -51.0648 16.3742
lowerback 14.7446 2.38681 0.209533
upperback 7.16418 3.0413 8.28977
thorax -1.09876 1.26699 8.24051
lowerneck -7.58896 -12.753 -12.5523
upperneck 28.4842 -18.8693 8.19567
head 12.7448 -8.87032 2.42924
rclavicle 1.11319e-014 3.81667e-014
rhumerus -4.34895 14.1841 -95.4358
rradius 29.0802
rwrist -41.6854
rhand -35.4691 -28.9325
rfingers 7.12502
rthumb -8.59744 -58.7374
lclavicle 1.11319e-014 3.81667e-014
lhumerus -26.1959 -52.1177 97.6411
lradius 44.0501
lwrist 20.5346
lhand -12.5889 52.4398
lfingers 7.12502
lthumb 13.4894 -1358.02
rfemur -40.4229 -6.22549 -3.66358
rtibia 36.1547
rfoot -17.6974 -16.1747
rtoes 13.0719
lfemur -22.7441 4.78366 -30.8148
ltibia 28.0562
lfoot -15.9004 1.29272
ltoes -17.5775
3147
root 10.8786 17.4889 -5.5577 2.61884 -50.9218 16.1596
lowerback 14.8503 2.47015 0.345818
upperback 7.23022 3.16506 8.36121
thorax -1.09892 1.32727 8.21792
lowerneck -7.56645 -12.7985 -12.6145
upperneck 28.3599 -18.9281 8.28427
head 12.7151 -8.89315 2.46238
rclavicle 2.54444e-014 5.08889e-014
rhumerus -4.09125 13.2656 -95.9089
rradius 28.2419
rwrist -40.7643
rhand -35.3677 -28.7863
rfingers 7.12502
rthumb -8.49961 -58.5953
lclavicle 2.54444e-014 5.08889e-014
lhumerus -26.8622 -51.9162 97.5713
lradius 44.0479
lwrist 20.9311
lhand -12.7078 52.6589
lfingers 7.12502
lthumb 13.3748 -1357.79
rfemur -40.5468 -6.22181 -3.51849
rtibia 36.4542
rfoot -17.9247 -16.5096
rtoes 12.8574
lfemur -22.7888 4.7909 -30.8051
ltibia 28.1526
lfoot -15.9551 1.21229
ltoes -17.2407
3148
root 10.9011 17.4898 -5.5381 2.72691 -50.8307 15.994
lowerback 14.8871 2.53012 0.402097
upperback 7.29462 3.24563 8.43721
thorax -1.06206 1.36403 8.25615
lowerneck -7.35626 -12.7967 -12.7714
upperneck 28.1549 -18.9409 8.46642
head 12.631 -8.90586 2.56579
rclavicle 1.03368e-013 6.67916e-014
rhumerus -3.85717 12.7212 -96.2716
rradius 27.5445
rwrist -40.212
rhand -35.4584 -28.7427
rfingers 7.12502
rthumb -8.58712 -58.548
lclavicle 1.03368e-013 6.67916e-014
lhumerus -27.4518 -51.4516 97.5001
lradius 44.0225
lwrist 21.3077
lhand -12.8531 52.7642
lfingers 7.12502
lthumb 13.2348 -1357.68
rfemur -40.6748 -6.18359 -3.38361
rtibia 36.7121
rfoot -18.318 -16.7139
rtoes 13.1723
lfemur -22.8024 4.71843 -30.8195
ltibia 28.2326
lfoot -16.0021 1.2756
ltoes -17.1779
3149
root 10.9235 17.4914 -5.52367 2.82233 -50.6107 15.8943
lowerback 14.9875 2.52611 0.389493
upperback 7.29438 3.24432 8.51579
thorax -1.11998 1.36228 8.34924
lowerneck -7.20459 -12.7785 -12.9831
upperneck 28.0785 -18.9334 8.63702
head 12.6142 -8.91194 2.6711
rclavicle 5.40694e-014 6.36111e-015
rhumerus -3.71556 12.5308 -96.5061
rradius 27.0421
rwrist -40.006
rhand -35.629 -28.7827
rfingers 7.12502
rthumb -8.75182 -58.5812
lclavicle 5.40694e-014 6.36111e-015
lhumerus -27.8956 -50.8329 97.4173
lradius 43.9467
lwrist 21.5387
lhand -12.6088 52.9325
lfingers 7.12502
lthumb 13.4703 -1357.52
rfemur -40.7774 -6.14339 -3.32359
rtibia 36.9609
rfoot -18.9612 -16.8486
rtoes 13.6474
lfemur -22.8733 4.51869 -30.87
ltibia 28.2782
lfoot -15.9594 1.31501
ltoes -17.2182
3150
root 10.9441 17.495 -5.51421 2.96048 -50.3473 15.79
lowerback 15.0726 2.52982 0.365401
upperback 7.31235 3.24944 8.59388
thorax -1.15182 1.36275 8.44831
lowerneck -7.29512 -12.7967 -13.1764
upperneck 28.1445 -18.9451 8.71185
head 12.6937 -8.92076 2.71676
rclavicle 2.8625e-014 -1.01778e-013
rhumerus -3.52956 12.5728 -96.5524
rradius 26.849
rwrist -40.174
rhand -35.5017 -28.792
rfingers 7.12502
rthumb -8.62894 -58.5957
lclavicle 2.8625e-014 -1.01778e-013
lhumerus -28.1682 -50.4051 97.3311
lradius 43.8765
lwrist 21.7086
lhand -12.614 53.1302
lfingers 7.12502
lthumb 13.4653 -1357.33
rfemur -40.9522 -6.24608 -3.15441
rtibia 37.2164
rfoot -19.2875 -16.9867
rtoes 13.2682
lfemur -22.9685 4.27752 -30.887
ltibia 28.2857
lfoot -15.9187 1.30858
ltoes -16.9291
3151
root 10.9604 17.4967 -5.50273 2.98247 -50.2105 15.7979
lowerback 15.0991 2.57283 0.207492
upperback 7.40672 3.27824 8.63299
thorax -1.07956 1.36927 8.58138
lowerneck -7.5607 -12.8144 -13.0226
upperneck 28.2553 -18.9149 8.51157
head 12.7464 -8.89879 2.6073
rclavicle -2.8625e-014 -7.95139e-014
rhumerus -3.30251 12.8074 -96.5205
rradius 26.9553
rwrist -40.5901
rhand -35.3715 -28.7706
rfingers 7.12502
rthumb -8.50332 -58.5794
lclavicle -2.8625e-014 -7.95139e-014
lhumerus -28.1595 -49.8015 97.0845
lradius 43.692
lwrist 21.7423
lhand -12.681 53.0688
lfingers 7.12502
lthumb 13.4007 -1357.38
rfemur -41.1925 -6.42664 -2.94663
rtibia 37.4827
rfoot -19.2869 -16.9
rtoes 12.9962
lfemur -22.9952 4.18598 -30.9741
ltibia 28.2764
lfoot -15.9305 1.26616
ltoes -16.5588
3152
root 10.9743 17.4991 -5.48984 3.09304 -50.0341 15.6883
lowerback 15.1922 2.58877 0.175778
upperback 7.42838 3.29777 8.65636
thorax -1.1116 1.37783 8.62127
lowerneck -7.59161 -12.8085 -12.8348
upperneck 28.2935 -18.9027 8.39786
head 12.7303 -8.88457 2.53924
rclavicle 2.54444e-014 -1.59028e-014
rhumerus -3.20326 13.0215 -96.451
rradius 27.2477
rwrist -41.1579
rhand -35.5843 -28.9202
rfingers 7.12502
rthumb -8.70863 -58.7206
lclavicle 2.54444e-014 -1.59028e-014
lhumerus -28.1274 -49.1966 96.8881
lradius 43.4732
lwrist 21.7528
lhand -12.6402 53.0291
lfingers 7.12502
lthumb 13.44 -1357.42
rfemur -41.4095 -6.61398 -2.63721
rtibia 37.7355
rfoot -19.2091 -16.6673
rtoes 12.6114
lfemur -23.0115 4.14173 -30.986
ltibia 28.2541
lfoot -15.9001 1.12454
ltoes -16.2317
